<svg width="17" height="17" viewBox="0 0 17 17" fill="none" xmlns="http://www.w3.org/2000/svg">
<path d="M13.9331 9.90417C13.3956 9.78857 12.9705 10.0381 12.5941 10.256C12.2086 10.4805 11.4755 11.0752 11.0553 10.923C8.90404 10.0372 6.88072 8.15429 6.00485 5.99439C5.85048 5.56524 6.44237 4.82753 6.66526 4.43746C6.88155 4.05987 7.1259 3.63072 7.01445 3.08929C6.91374 2.60275 5.61109 0.945187 5.15045 0.491915C4.84666 0.192506 4.53545 0.0278308 4.21597 0.00121662C3.01486 -0.0503483 1.6734 1.55232 1.43813 1.93573C0.848719 2.75329 0.852021 3.84114 1.44804 5.1602C2.88443 8.70321 8.31711 14.0502 11.8734 15.5406C12.5297 15.8474 13.1298 16.0013 13.6689 16.0013C14.1964 16.0013 14.6661 15.8541 15.0698 15.5622C15.3744 15.3867 17.0427 13.9786 16.999 12.7452C16.9726 12.4309 16.8083 12.1165 16.5128 11.8121C16.0629 11.3472 14.416 10.0056 13.9331 9.90417Z" fill="white"/>
</svg>
