<svg width="20" height="20" viewBox="0 0 20 20" fill="none" xmlns="http://www.w3.org/2000/svg">
<path d="M14.9331 11.9042C14.3956 11.7886 13.9705 12.0381 13.5941 12.256C13.2086 12.4805 12.4755 13.0752 12.0553 12.923C9.90404 12.0372 7.88072 10.1543 7.00485 7.99439C6.85048 7.56524 7.44237 6.82753 7.66526 6.43746C7.88155 6.05987 8.1259 5.63072 8.01445 5.08929C7.91374 4.60275 6.61109 2.94519 6.15045 2.49191C5.84666 2.19251 5.53545 2.02783 5.21597 2.00122C4.01486 1.94965 2.6734 3.55232 2.43813 3.93573C1.84872 4.75329 1.85202 5.84114 2.44804 7.1602C3.88443 10.7032 9.31711 16.0502 12.8734 17.5406C13.5297 17.8474 14.1298 18.0013 14.6689 18.0013C15.1964 18.0013 15.6661 17.8541 16.0698 17.5622C16.3744 17.3867 18.0427 15.9786 17.999 14.7452C17.9726 14.4309 17.8083 14.1165 17.5128 13.8121C17.0629 13.3472 15.416 12.0056 14.9331 11.9042Z" fill="black"/>
</svg>
