<svg width="12" height="11" viewBox="0 0 12 11" fill="none" xmlns="http://www.w3.org/2000/svg">
<path d="M6.76301 5.43171L5.56961 4.23853C5.54516 4.214 5.51611 4.19453 5.48413 4.18125C5.45214 4.16797 5.41784 4.16113 5.38321 4.16113C5.34858 4.16113 5.31428 4.16797 5.28229 4.18125C5.25031 4.19453 5.22126 4.214 5.19681 4.23853L0.582633 8.59175C0.557046 8.61587 0.536553 8.64488 0.522366 8.67706C0.508178 8.70923 0.500584 8.74393 0.500032 8.77909C0.49948 8.81425 0.505982 8.84917 0.519152 8.88177C0.532322 8.91438 0.551894 8.94402 0.576712 8.96893L2.02515 10.4224C2.05002 10.4474 2.07963 10.4671 2.11225 10.4803C2.14487 10.4936 2.17982 10.5002 2.21503 10.4998C2.25025 10.4993 2.28501 10.4918 2.31726 10.4776C2.34951 10.4635 2.37859 10.443 2.40278 10.4174L6.76257 5.80429C6.7871 5.77988 6.80657 5.75087 6.81987 5.71891C6.83317 5.68696 6.84004 5.6527 6.84008 5.61809C6.84012 5.58349 6.83334 5.54921 6.82011 5.51723C6.80689 5.48525 6.78748 5.45619 6.76301 5.43171Z" fill="black"/>
<path d="M11.2599 4.16946L10.2974 3.21377C10.2534 3.1699 10.2011 3.13518 10.1436 3.11161C10.0861 3.08805 10.0245 3.07612 9.96232 3.07649C9.86162 3.07659 9.7635 3.10835 9.68184 3.16728C9.68184 3.15785 9.68316 3.14864 9.68381 3.14053C9.69368 2.99799 9.70903 2.78264 9.56978 2.58747C9.40422 2.36431 9.22244 2.15366 9.02593 1.95721C9.0254 1.95658 9.02481 1.95599 9.02418 1.95546C8.73208 1.66775 8.09634 1.12587 7.12245 0.728726C6.75294 0.577236 6.35736 0.499534 5.958 0.500002C5.26591 0.500002 4.7396 0.812277 4.53807 0.997362C4.33961 1.17845 4.20946 1.42226 4.16943 1.68792L4.5203 1.90349C4.5203 1.90349 4.69706 1.85963 4.82425 1.82915C4.95713 1.80081 5.09347 1.79231 5.22885 1.80393C5.51809 1.82783 5.86019 1.97147 6.01151 2.09098C6.26808 2.29734 6.39155 2.57541 6.41194 2.99207C6.41633 3.08483 6.20317 3.46026 5.88212 3.86573C5.85542 3.89945 5.84203 3.94179 5.8445 3.98472C5.84696 4.02766 5.86511 4.06819 5.8955 4.09863L6.89044 5.09356C6.92232 5.12516 6.96509 5.14334 7.00996 5.14436C7.05483 5.14538 7.09839 5.12916 7.13166 5.09905C7.39635 4.85782 7.80029 4.48502 7.89196 4.42822C8.0606 4.3245 8.18121 4.30454 8.21432 4.30103C8.30025 4.29261 8.38669 4.31083 8.4619 4.35323C8.46228 4.35698 8.46187 4.36077 8.4607 4.36436C8.45953 4.36794 8.45762 4.37125 8.45511 4.37406L8.41519 4.412L8.40862 4.41814C8.36452 4.46207 8.32954 4.5143 8.30572 4.57181C8.28189 4.62932 8.26967 4.69098 8.26977 4.75323C8.26988 4.81548 8.28229 4.8771 8.30631 4.93453C8.33033 4.99196 8.36547 5.04407 8.40971 5.08786L9.37351 6.04574C9.40638 6.07842 9.45085 6.09676 9.49719 6.09676C9.54354 6.09676 9.58801 6.07842 9.62088 6.04574L11.2586 4.41858C11.2751 4.40235 11.2883 4.38302 11.2973 4.36169C11.3063 4.34036 11.311 4.31745 11.3111 4.29429C11.3112 4.27113 11.3068 4.24818 11.298 4.22675C11.2892 4.20533 11.2762 4.18585 11.2599 4.16946Z" fill="black"/>
</svg>
