<svg width="85" height="19" viewBox="0 0 85 19" fill="none" xmlns="http://www.w3.org/2000/svg">
<path d="M0.171875 15H9.2832V12.5684H3.12109V0.908203H0.171875V15ZM15.4355 15.2148C18.5996 15.2148 20.6211 13.1836 20.6211 9.76562V9.74609C20.6211 6.35742 18.5605 4.31641 15.4258 4.31641C12.3008 4.31641 10.25 6.37695 10.25 9.74609V9.76562C10.25 13.1738 12.252 15.2148 15.4355 15.2148ZM15.4453 12.9785C14.0391 12.9785 13.1504 11.8164 13.1504 9.76562V9.74609C13.1504 7.72461 14.0488 6.55273 15.4258 6.55273C16.8125 6.55273 17.7207 7.72461 17.7207 9.74609V9.76562C17.7207 11.8066 16.832 12.9785 15.4453 12.9785ZM26.9883 18.6328C30.1328 18.6328 32.0957 17.041 32.0957 14.707V4.53125H29.2441V6.31836H29.1855C28.6191 5.09766 27.4766 4.31641 26.002 4.31641C23.3555 4.31641 21.7148 6.29883 21.7148 9.63867V9.64844C21.7148 12.9004 23.3359 14.8535 25.9531 14.8535C27.4668 14.8535 28.6387 14.1602 29.1855 13.0664H29.2441V14.668C29.2441 15.8398 28.4629 16.6016 26.9883 16.6016C25.7969 16.6016 25.0352 16.1523 24.8105 15.6348L24.7812 15.5664H22.0078L22.0176 15.6543C22.291 17.334 24.1074 18.6328 26.9883 18.6328ZM26.9395 12.7637C25.5137 12.7637 24.6152 11.6016 24.6152 9.7168V9.70703C24.6152 7.83203 25.5234 6.67969 26.9395 6.67969C28.3262 6.67969 29.2539 7.8418 29.2539 9.70703V9.7168C29.2539 11.5918 28.3359 12.7637 26.9395 12.7637ZM38.7754 15.2148C41.9395 15.2148 43.9609 13.1836 43.9609 9.76562V9.74609C43.9609 6.35742 41.9004 4.31641 38.7656 4.31641C35.6406 4.31641 33.5898 6.37695 33.5898 9.74609V9.76562C33.5898 13.1738 35.5918 15.2148 38.7754 15.2148ZM38.7852 12.9785C37.3789 12.9785 36.4902 11.8164 36.4902 9.76562V9.74609C36.4902 7.72461 37.3887 6.55273 38.7656 6.55273C40.1523 6.55273 41.0605 7.72461 41.0605 9.74609V9.76562C41.0605 11.8066 40.1719 12.9785 38.7852 12.9785ZM49.5957 15.2148C50.1914 15.2148 50.6504 15.1562 50.9727 15.1074V13.0176C50.7969 13.0371 50.6113 13.0664 50.3574 13.0664C49.498 13.0664 49.0586 12.7344 49.0586 11.7578V6.67969H50.9727V4.53125H49.0586V1.97266H46.1777V4.53125H44.7227V6.67969H46.1777V12.0703C46.1777 14.3164 47.2715 15.2148 49.5957 15.2148ZM54.1855 18.4473C56.5098 18.4473 57.916 17.6562 58.7363 15.1855L62.3301 4.53125H59.3223L57.1055 12.7148H57.0273L54.8203 4.53125H51.6855L55.3867 15L55.2598 15.3418C55.0059 16.0547 54.5371 16.2988 53.6875 16.2988C53.2676 16.2988 52.9355 16.2402 52.7305 16.2012V18.3203C53.0625 18.3789 53.6289 18.4473 54.1855 18.4473ZM63.3262 18.418H66.1777V13.2129H66.2363C66.8027 14.4531 67.9844 15.2148 69.4785 15.2148C72.0957 15.2148 73.7168 13.1641 73.7168 9.76562V9.75586C73.7168 6.34766 72.0957 4.31641 69.4395 4.31641C67.9551 4.31641 66.8125 5.08789 66.2461 6.35742H66.1777V4.53125H63.3262V18.418ZM68.502 12.8516C67.1152 12.8516 66.168 11.6602 66.168 9.77539V9.76562C66.168 7.87109 67.1152 6.67969 68.502 6.67969C69.918 6.67969 70.8164 7.8418 70.8164 9.75586V9.76562C70.8164 11.6699 69.918 12.8516 68.502 12.8516ZM79.9668 15.2148C82.9551 15.2148 84.4004 13.4473 84.7227 11.9043L84.752 11.7969H82.1348L82.1152 11.8555C81.9102 12.4414 81.1973 13.0859 80.0254 13.0859C78.5703 13.0859 77.6621 12.1094 77.6328 10.4395H84.8398V9.56055C84.8398 6.39648 82.916 4.31641 79.8496 4.31641C76.7832 4.31641 74.8203 6.44531 74.8203 9.77539V9.78516C74.8203 13.1348 76.7637 15.2148 79.9668 15.2148ZM79.8984 6.44531C81.0801 6.44531 81.9297 7.19727 82.1055 8.64258H77.6621C77.8477 7.22656 78.7266 6.44531 79.8984 6.44531Z" fill="black"/>
</svg>
